<svg aria-hidden="true" style="width:0;height:0;position:absolute;overflow:hidden" xmlns="http://www.w3.org/2000/svg"><defs><symbol id="eye" viewBox="0 0 32 32"><path fill="#b7c1c5" style="fill:var(--color1,#b7c1c5)" d="M16 3.999c7.393 0 13.666 5.014 16 12-2.334 6.987-8.607 12-16 12s-13.666-5.014-16-12c2.334-6.986 8.607-12 16-12zM16 24a8 8 0 1 0 0-16 8 8 0 0 0 0 16z"/><path fill="#b7c1c5" style="fill:var(--color1,#b7c1c5)" d="M13.172 13.172a4 4 0 1 0 5.658 5.657 4 4 0 0 0-5.658-5.657z"/></symbol><symbol id="arrow-right" viewBox="0 0 14 32"><path fill="none" stroke="#254a5a" style="stroke:var(--color2,#254a5a)" stroke-width=".78" d="M.78.78 13.268 16 .78 31.22"/></symbol><symbol id="arrow-left" viewBox="0 0 14 32"><path fill="none" stroke="#254a5a" style="stroke:var(--color2,#254a5a)" stroke-width=".78" d="M13.268.78.78 16l12.488 15.22"/></symbol><symbol id="eye-close" viewBox="0 0 32 32"><path fill="#b7c1c5" style="fill:var(--color1,#b7c1c5)" d="m15.757 10.933 4.581 4.581.022-.24a4.366 4.366 0 0 0-4.363-4.363l-.24.022z"/><path fill="#b7c1c5" style="fill:var(--color1,#b7c1c5)" d="M15.998 8.003a7.273 7.273 0 0 1 7.271 7.271c0 .938-.189 1.832-.516 2.654l4.254 4.254a17.272 17.272 0 0 0 4.995-6.907C29.479 8.891 23.277 4.368 15.998 4.368c-2.036 0-3.985.364-5.795 1.018l3.141 3.134a7.308 7.308 0 0 1 2.654-.516zM1.454 4.039l3.977 3.977A17.224 17.224 0 0 0 0 15.273C2.516 21.657 8.725 26.18 15.996 26.18c2.254 0 4.406-.436 6.377-1.229l.618.618 4.239 4.246 1.854-1.847L3.308 2.185 1.454 4.039zm8.042 8.035 2.247 2.247a4.64 4.64 0 0 0-.109.953 4.366 4.366 0 0 0 4.363 4.363c.327 0 .64-.044.945-.109l2.247 2.247a7.151 7.151 0 0 1-3.192.771 7.273 7.273 0 0 1-7.271-7.271c0-1.149.291-2.225.771-3.199z"/></symbol><symbol id="menu" viewBox="0 0 44 32"><path fill="none" stroke="#254a5a" style="stroke:var(--color2,#254a5a)" stroke-linejoin="round" stroke-linecap="round" stroke-width="2.909" d="M42.182 2.909H2.909M42.182 16H17.455m24.727 13.091H7.273"/></symbol><symbol id="heart-color" viewBox="0 0 38 32"><path fill="none" stroke="#e64926" style="stroke:var(--color3,#e64926)" stroke-linecap="round" stroke-width="16.941" d="m9.412 9.412 9.412 9.412 9.412-9.412"/></symbol><symbol id="basket" viewBox="0 0 27 32"><path fill="none" stroke="#254a5a" style="stroke:var(--color2,#254a5a)" stroke-width="1.684" d="M.842 10.947h25.263v20.211H.842V10.947zM21.895 10.105a8.421 8.421 0 0 0-16.843 0"/></symbol><symbol id="heart" viewBox="0 0 37 32"><path fill="none" stroke="#254a5a" style="stroke:var(--color2,#254a5a)" stroke-linecap="round" stroke-width="1.778" d="M4.121 4.121a8 8 0 0 1 11.314 0l3.232 3.232 3.232-3.232a8 8 0 0 1 11.314 11.314L18.667 29.981 4.121 15.435a8 8 0 0 1 0-11.314z"/></symbol><symbol id="person" viewBox="0 0 28 32"><path fill="#254a5a" style="fill:var(--color2,#254a5a)" d="M26.539 30.222H1.905a12.44 12.44 0 0 1 7.555-9.72 12.452 12.452 0 0 1 9.524 0 12.466 12.466 0 0 1 7.555 9.72zm1.794 0a14.22 14.22 0 0 0-14.111-12.445A14.22 14.22 0 0 0 .111 30.222 14.242 14.242 0 0 0-.001 32h28.444c0-.596-.037-1.189-.111-1.778zM14.222 12.444a5.333 5.333 0 1 1 0-10.667 5.333 5.333 0 0 1 0 10.667zm0 1.778a7.111 7.111 0 1 0 0-14.223 7.111 7.111 0 0 0 0 14.223z"/></symbol><symbol id="logo" viewBox="0 0 258 32"><path d="m20.838 31.569-2.022-5.519H5.486l-2.169 5.519H-.001L12.464 0l11.74 31.569h-3.367zM12.319 7.917 6.4 23.458h11.455L12.319 7.917zM41.383 31.569V1.105h3.22v27.774h9.482v2.69H41.383zM71.834 31.569V1.105h3.22v27.774h9.482v2.69H71.834zM102.291 31.569V1.105h15.107v2.829h-11.887v7.242h8.087v2.731h-8.087v15.012h12.416v2.642l-15.637.008zM150.939 32c-8.609-.049-16.314-4.795-16.314-14.972 0-9.55 7.509-16.402 17.463-16.402.53 0 1.06 0 1.59.049v2.829c-.579-.049-1.158-.098-1.728-.098-7.794.049-14.194 4.893-14.194 13.623 0 8.632 6.881 12.33 13.085 12.33.432 0 .864 0 1.296-.049V12.566h-6.596v-2.495h9.62V31.61c-1.386.244-2.829.39-4.223.39zM189.387 24.23l4.859 7.34h-3.563l-3.995-6.185c-1.296.528-3.18.959-5.104.959-.962 0-2.022-.098-2.935-.285v5.519h-3.179V1.106h5.674c9.963 0 13.86 5.852 13.86 13.045.008 3.601-1.337 7.388-5.617 10.079zm-7.606-20.491h-3.131v19.572c1.06.333 1.924.48 3.082.48 1.207 0 2.65-.195 3.514-.626l-2.739-4.08 2.454-1.536 2.886 4.365c2.405-1.439 4.182-4.08 4.182-7.388 0-7.762-5.095-10.786-10.248-10.786zM213.78 31.569V1.105h3.178v30.464h-3.178zM254.634 31.569l-2.022-5.519h-13.33l-2.168 5.519h-3.32L246.26 0 258 31.569h-3.366zm-8.52-23.652-5.92 15.541h11.456l-5.536-15.541z"/></symbol></defs></svg>